<?xml version="1.0" encoding="UTF-8"?>
<svg width="128" height="128" version="1.1" viewBox="0 0 128 128" xmlns="http://www.w3.org/2000/svg">
 <rect x="5" y="11" width="118" height="106" ry="10" fill="#e5e5e5"/>
 <path d="m114 32c0 4.4-3.7 7.9-8.2 7.9h-84c-4.6 0.0053-8.2-3.5-8.2-7.9 0-4.4 3.7-7.9 8.2-7.9h84c4.6 0 8.2 3.5 8.2 7.9zm0 32c0 4.4-3.7 7.9-8.2 7.9h-84c-4.6 0-8.2-3.5-8.2-7.9 0-4.4 3.7-7.9 8.2-7.9h84c4.6-0.0053 8.2 3.5 8.2 7.9zm0 32c0 4.4-3.7 7.9-8.2 7.9h-84c-4.6 0-8.2-3.5-8.2-7.9 0-4.4 3.7-7.9 8.2-7.9h84c4.6-0.011 8.2 3.5 8.2 7.9z" stroke-width="5.4"/>
</svg>
