<svg xmlns="http://www.w3.org/2000/svg" xmlns:xlink="http://www.w3.org/1999/xlink">
  <defs>
    <symbol id="home" viewBox="0 0 128 128">
      <path d="m4 64 60-60 60 60" fill="none" stroke="currentColor" stroke-linecap="round" stroke-linejoin="round" stroke-width="8"/>
      <path d="m64 14-50 50v60h100v-60z" fill="currentColor" fill-rule="evenodd"/>
      <path d="m100 40v-26" fill="none" stroke="currentColor" stroke-width="10"/>
      <path d="m50 124v-30c0-16 0.019-14 14-14 14 0 14-2 14 14v30z" fill="#fff" fill-rule="evenodd"/>
    </symbol>
    <symbol id="rss" viewBox="0 0 128 128">
      <rect width="128" height="128" ry="26" fill="currentColor"/>
      <circle cx="28" cy="100" r="16" fill="#fff"/>
      <path d="m18 62a48 48 0 0 1 48 48" fill="none" stroke="#fff" stroke-linecap="round" stroke-width="12"/>
      <path d="m20 28a80 80 0 0 1 80 80" fill="none" stroke="#fff" stroke-linecap="round" stroke-width="16"/>
    </symbol>
    <symbol id="copyright" viewBox="0 0 128 128">
      <g fill="none" stroke="currentColor">
        <ellipse cx="64" cy="64" rx="51" ry="57" stroke-linecap="round" stroke-width="14"/>
        <path d="m84 56c0-3.1 1.7-23-21-23-14 0-21 11-21 32 0 22 8.7 30 21 30 16 0 21-7 21-23" stroke-width="15"/>
      </g>
    </symbol>
    <symbol id="github-invertocat" viewBox="0 0 16 16">
      <path fill="currentColor" d="M7.999,0.431c-4.285,0-7.76,3.474-7.76,7.761 c0,3.428,2.223,6.337,5.307,7.363c0.388,0.071,0.53-0.168,0.53-0.374c0-0.184-0.007-0.672-0.01-1.32 c-2.159,0.469-2.614-1.04-2.614-1.04c-0.353-0.896-0.862-1.135-0.862-1.135c-0.705-0.481,0.053-0.472,0.053-0.472 c0.779,0.055,1.189,0.8,1.189,0.8c0.692,1.186,1.816,0.843,2.258,0.645c0.071-0.502,0.271-0.843,0.493-1.037 C4.86,11.425,3.049,10.76,3.049,7.786c0-0.847,0.302-1.54,0.799-2.082C3.768,5.507,3.501,4.718,3.924,3.65 c0,0,0.652-0.209,2.134,0.796C6.677,4.273,7.34,4.187,8,4.184c0.659,0.003,1.323,0.089,1.943,0.261 c1.482-1.004,2.132-0.796,2.132-0.796c0.423,1.068,0.157,1.857,0.077,2.054c0.497,0.542,0.798,1.235,0.798,2.082 c0,2.981-1.814,3.637-3.543,3.829c0.279,0.24,0.527,0.713,0.527,1.437c0,1.037-0.01,1.874-0.01,2.129 c0,0.208,0.14,0.449,0.534,0.373c3.081-1.028,5.302-3.935,5.302-7.362C15.76,3.906,12.285,0.431,7.999,0.431z"/>
    </symbol>
    <symbol id="hamburger" viewBox="0 0 128 128">
      <rect x="5" y="11" width="118" height="106" ry="10" fill="#e5e5e5"/>
      <path d="m114 32c0 4.4-3.7 7.9-8.2 7.9h-84c-4.6 0.0053-8.2-3.5-8.2-7.9 0-4.4 3.7-7.9 8.2-7.9h84c4.6 0 8.2 3.5 8.2 7.9zm0 32c0 4.4-3.7 7.9-8.2 7.9h-84c-4.6 0-8.2-3.5-8.2-7.9 0-4.4 3.7-7.9 8.2-7.9h84c4.6-0.0053 8.2 3.5 8.2 7.9zm0 32c0 4.4-3.7 7.9-8.2 7.9h-84c-4.6 0-8.2-3.5-8.2-7.9 0-4.4 3.7-7.9 8.2-7.9h84c4.6-0.011 8.2 3.5 8.2 7.9z" stroke-width="5.4"/>
    </symbol>
  </defs>
</svg>
